<svg width="19" height="18" viewBox="0 0 19 18" fill="none" xmlns="http://www.w3.org/2000/svg">
<path d="M5.69154 16.5551C5.67669 15.2751 5.67632 13.9943 5.67558 12.7143C5.67484 11.4343 5.67781 10.1536 5.69154 8.87359C5.69154 9.04467 5.69414 8.23451 5.70713 7.70752C4.12664 7.70752 2.54615 7.70752 0.965661 7.70752C0.564478 7.70752 0.254219 7.85226 0.078678 8.22969C0.0504727 8.28833 0.0259786 8.34993 0 8.41154V16.4916C0.0742246 16.62 0.131377 16.7625 0.2249 16.8739C0.378916 17.0561 0.593796 17.1337 0.831686 17.1337C2.45312 17.1337 4.07493 17.1381 5.69673 17.1318C5.69377 16.8542 5.69228 16.6141 5.69154 16.5551Z" fill="#1D9200"/>
<path d="M18.9484 7.58478C18.8252 7.10232 18.558 6.72377 18.0796 6.55528C17.8305 6.47322 17.5696 6.43223 17.3073 6.43393C15.9149 6.42316 14.522 6.42984 13.1296 6.43021C12.9507 6.43021 12.944 6.41908 12.9726 6.24651C13.0591 5.73844 13.1325 5.22815 13.2324 4.72231C13.3675 4.03759 13.3845 3.35806 13.1563 2.69264C12.9507 2.09439 12.7176 1.50504 12.4946 0.913474C12.3695 0.579464 12.158 0.334894 11.8203 0.193125C11.1816 -0.0755677 10.5518 -0.070372 9.94014 0.249536C9.54898 0.454024 9.32 0.780241 9.33262 1.24526C9.35043 1.89992 9.35525 2.55532 9.38198 3.20961C9.39424 3.42056 9.34374 3.63041 9.23687 3.81269C8.73177 4.68 8.243 5.55696 7.71526 6.41054C7.44249 6.85033 7.10031 7.24743 6.78078 7.65715C6.76939 7.67174 6.75702 7.68585 6.74366 7.69945C6.74366 8.29003 6.74366 8.88061 6.74366 9.47119C6.74366 11.7066 6.73723 13.9421 6.72437 16.1778C7.15672 16.4509 7.61988 16.5752 8.14243 16.5723C10.5202 16.5582 12.898 16.5659 15.2754 16.5659C15.6888 16.5659 16.0974 16.5407 16.496 16.4101C17.2876 16.1503 17.7849 15.5372 17.8477 14.7085C17.8718 14.3934 17.8573 14.0813 17.7437 13.7788C17.7278 13.7365 17.7545 13.6615 17.7857 13.62C18.0985 13.2025 18.2848 12.7404 18.2514 12.213C18.2403 12.0312 18.1832 11.8501 18.1271 11.6749C18.0974 11.5807 18.0978 11.5179 18.1616 11.4378C18.4585 11.0633 18.64 10.638 18.6255 10.1574C18.6189 9.93064 18.535 9.70649 18.4923 9.48047C18.4819 9.42629 18.4734 9.34724 18.5027 9.31458C18.7588 9.02919 18.9013 8.69295 18.974 8.32183C18.9801 8.30784 18.9889 8.29522 19 8.28471V7.76143C18.9837 7.70242 18.9644 7.64416 18.9484 7.58478Z" fill="#1D9200"/>
</svg>
